<mxfile host="app.diagrams.net" modified="2024-07-17T13:22:52.002Z" agent="Mozilla/5.0 (Windows NT 10.0; Win64; x64) AppleWebKit/537.36 (KHTML, like Gecko) Chrome/126.0.0.0 Safari/537.36" etag="L22zoP0RPhJBMb_gmlPp" version="24.7.0" type="device">
  <diagram name="Trang-1" id="44aw2h1s4g8oCO6M_Mma">
    <mxGraphModel dx="1050" dy="565" grid="1" gridSize="10" guides="1" tooltips="1" connect="1" arrows="1" fold="1" page="1" pageScale="1" pageWidth="827" pageHeight="1169" math="0" shadow="0">
      <root>
        <mxCell id="0" />
        <mxCell id="1" parent="0" />
        <mxCell id="VZwW1Q_gdff7vHrm7JKM-1" value="Admin" style="shape=umlActor;verticalLabelPosition=bottom;verticalAlign=top;html=1;outlineConnect=0;" parent="1" vertex="1">
          <mxGeometry x="80" y="60" width="30" height="60" as="geometry" />
        </mxCell>
        <mxCell id="VZwW1Q_gdff7vHrm7JKM-2" value="View" style="rounded=0;whiteSpace=wrap;html=1;" parent="1" vertex="1">
          <mxGeometry x="220" y="75" width="60" height="30" as="geometry" />
        </mxCell>
        <mxCell id="VZwW1Q_gdff7vHrm7JKM-3" value=":EmployeeController" style="rounded=0;whiteSpace=wrap;html=1;" parent="1" vertex="1">
          <mxGeometry x="380" y="80" width="120" height="30" as="geometry" />
        </mxCell>
        <mxCell id="VZwW1Q_gdff7vHrm7JKM-4" value=":EmployeeService" style="rounded=0;whiteSpace=wrap;html=1;" parent="1" vertex="1">
          <mxGeometry x="600" y="80" width="120" height="30" as="geometry" />
        </mxCell>
        <mxCell id="VZwW1Q_gdff7vHrm7JKM-5" value=":EmployeeRepository" style="rounded=0;whiteSpace=wrap;html=1;" parent="1" vertex="1">
          <mxGeometry x="845" y="80" width="120" height="30" as="geometry" />
        </mxCell>
        <mxCell id="VZwW1Q_gdff7vHrm7JKM-8" value="Database" style="rounded=0;whiteSpace=wrap;html=1;" parent="1" vertex="1">
          <mxGeometry x="1070" y="80" width="120" height="30" as="geometry" />
        </mxCell>
        <mxCell id="VZwW1Q_gdff7vHrm7JKM-11" value="" style="endArrow=none;dashed=1;html=1;dashPattern=1 3;strokeWidth=2;rounded=0;" parent="1" edge="1">
          <mxGeometry width="50" height="50" relative="1" as="geometry">
            <mxPoint x="90" y="140" as="sourcePoint" />
            <mxPoint x="90" y="640" as="targetPoint" />
          </mxGeometry>
        </mxCell>
        <mxCell id="VZwW1Q_gdff7vHrm7JKM-12" value="" style="html=1;points=[[0,0,0,0,5],[0,1,0,0,-5],[1,0,0,0,5],[1,1,0,0,-5]];perimeter=orthogonalPerimeter;outlineConnect=0;targetShapes=umlLifeline;portConstraint=eastwest;newEdgeStyle={&quot;curved&quot;:0,&quot;rounded&quot;:0};" parent="1" vertex="1">
          <mxGeometry x="245" y="160" width="10" height="480" as="geometry" />
        </mxCell>
        <mxCell id="VZwW1Q_gdff7vHrm7JKM-13" value="" style="endArrow=none;dashed=1;html=1;dashPattern=1 3;strokeWidth=2;rounded=0;entryX=0.5;entryY=1;entryDx=0;entryDy=0;" parent="1" source="VZwW1Q_gdff7vHrm7JKM-12" target="VZwW1Q_gdff7vHrm7JKM-2" edge="1">
          <mxGeometry width="50" height="50" relative="1" as="geometry">
            <mxPoint x="250" y="200" as="sourcePoint" />
            <mxPoint x="255" y="150" as="targetPoint" />
          </mxGeometry>
        </mxCell>
        <mxCell id="VZwW1Q_gdff7vHrm7JKM-15" value="1. select employee" style="html=1;verticalAlign=bottom;endArrow=block;curved=0;rounded=0;" parent="1" edge="1">
          <mxGeometry width="80" relative="1" as="geometry">
            <mxPoint x="90" y="160" as="sourcePoint" />
            <mxPoint x="245" y="160" as="targetPoint" />
          </mxGeometry>
        </mxCell>
        <mxCell id="VZwW1Q_gdff7vHrm7JKM-16" value="" style="html=1;points=[[0,0,0,0,5],[0,1,0,0,-5],[1,0,0,0,5],[1,1,0,0,-5]];perimeter=orthogonalPerimeter;outlineConnect=0;targetShapes=umlLifeline;portConstraint=eastwest;newEdgeStyle={&quot;curved&quot;:0,&quot;rounded&quot;:0};" parent="1" vertex="1">
          <mxGeometry x="655" y="280" width="10" height="240" as="geometry" />
        </mxCell>
        <mxCell id="VZwW1Q_gdff7vHrm7JKM-17" value="" style="endArrow=none;dashed=1;html=1;dashPattern=1 3;strokeWidth=2;rounded=0;entryX=0.5;entryY=1;entryDx=0;entryDy=0;" parent="1" source="VZwW1Q_gdff7vHrm7JKM-16" target="VZwW1Q_gdff7vHrm7JKM-4" edge="1">
          <mxGeometry width="50" height="50" relative="1" as="geometry">
            <mxPoint x="680" y="200" as="sourcePoint" />
            <mxPoint x="660" y="150" as="targetPoint" />
          </mxGeometry>
        </mxCell>
        <mxCell id="VZwW1Q_gdff7vHrm7JKM-18" value="4. deleteEmployeeById()" style="html=1;verticalAlign=bottom;endArrow=block;curved=0;rounded=0;" parent="1" source="VZwW1Q_gdff7vHrm7JKM-12" edge="1">
          <mxGeometry width="80" relative="1" as="geometry">
            <mxPoint x="260" y="250" as="sourcePoint" />
            <mxPoint x="435" y="250" as="targetPoint" />
          </mxGeometry>
        </mxCell>
        <mxCell id="VZwW1Q_gdff7vHrm7JKM-19" value="" style="html=1;points=[[0,0,0,0,5],[0,1,0,0,-5],[1,0,0,0,5],[1,1,0,0,-5]];perimeter=orthogonalPerimeter;outlineConnect=0;targetShapes=umlLifeline;portConstraint=eastwest;newEdgeStyle={&quot;curved&quot;:0,&quot;rounded&quot;:0};" parent="1" vertex="1">
          <mxGeometry x="435" y="250" width="10" height="310" as="geometry" />
        </mxCell>
        <mxCell id="VZwW1Q_gdff7vHrm7JKM-20" value="" style="endArrow=none;dashed=1;html=1;dashPattern=1 3;strokeWidth=2;rounded=0;entryX=0.5;entryY=1;entryDx=0;entryDy=0;" parent="1" source="VZwW1Q_gdff7vHrm7JKM-19" target="VZwW1Q_gdff7vHrm7JKM-3" edge="1">
          <mxGeometry width="50" height="50" relative="1" as="geometry">
            <mxPoint x="460" y="200" as="sourcePoint" />
            <mxPoint x="440" y="120" as="targetPoint" />
          </mxGeometry>
        </mxCell>
        <mxCell id="VZwW1Q_gdff7vHrm7JKM-21" value="5. deleteEmployeeById()" style="html=1;verticalAlign=bottom;endArrow=block;curved=0;rounded=0;" parent="1" source="VZwW1Q_gdff7vHrm7JKM-19" edge="1">
          <mxGeometry width="80" relative="1" as="geometry">
            <mxPoint x="475" y="280" as="sourcePoint" />
            <mxPoint x="655" y="280" as="targetPoint" />
          </mxGeometry>
        </mxCell>
        <mxCell id="VZwW1Q_gdff7vHrm7JKM-22" value="" style="html=1;points=[[0,0,0,0,5],[0,1,0,0,-5],[1,0,0,0,5],[1,1,0,0,-5]];perimeter=orthogonalPerimeter;outlineConnect=0;targetShapes=umlLifeline;portConstraint=eastwest;newEdgeStyle={&quot;curved&quot;:0,&quot;rounded&quot;:0};" parent="1" vertex="1">
          <mxGeometry x="900" y="380" width="10" height="100" as="geometry" />
        </mxCell>
        <mxCell id="VZwW1Q_gdff7vHrm7JKM-23" value="" style="endArrow=none;dashed=1;html=1;dashPattern=1 3;strokeWidth=2;rounded=0;entryX=0.5;entryY=1;entryDx=0;entryDy=0;" parent="1" source="VZwW1Q_gdff7vHrm7JKM-22" target="VZwW1Q_gdff7vHrm7JKM-5" edge="1">
          <mxGeometry width="50" height="50" relative="1" as="geometry">
            <mxPoint x="925" y="200" as="sourcePoint" />
            <mxPoint x="905" y="150" as="targetPoint" />
          </mxGeometry>
        </mxCell>
        <mxCell id="VZwW1Q_gdff7vHrm7JKM-24" value="8. deleteEmployeeById()" style="html=1;verticalAlign=bottom;endArrow=block;curved=0;rounded=0;" parent="1" edge="1">
          <mxGeometry width="80" relative="1" as="geometry">
            <mxPoint x="665" y="380" as="sourcePoint" />
            <mxPoint x="900" y="380" as="targetPoint" />
          </mxGeometry>
        </mxCell>
        <mxCell id="VZwW1Q_gdff7vHrm7JKM-25" value="" style="html=1;points=[[0,0,0,0,5],[0,1,0,0,-5],[1,0,0,0,5],[1,1,0,0,-5]];perimeter=orthogonalPerimeter;outlineConnect=0;targetShapes=umlLifeline;portConstraint=eastwest;newEdgeStyle={&quot;curved&quot;:0,&quot;rounded&quot;:0};" parent="1" vertex="1">
          <mxGeometry x="1125" y="410" width="10" height="50" as="geometry" />
        </mxCell>
        <mxCell id="VZwW1Q_gdff7vHrm7JKM-26" value="" style="endArrow=none;dashed=1;html=1;dashPattern=1 3;strokeWidth=2;rounded=0;entryX=0.5;entryY=1;entryDx=0;entryDy=0;" parent="1" source="VZwW1Q_gdff7vHrm7JKM-25" target="VZwW1Q_gdff7vHrm7JKM-8" edge="1">
          <mxGeometry width="50" height="50" relative="1" as="geometry">
            <mxPoint x="1150" y="200" as="sourcePoint" />
            <mxPoint x="1130" y="150" as="targetPoint" />
          </mxGeometry>
        </mxCell>
        <mxCell id="VZwW1Q_gdff7vHrm7JKM-27" value="9. executeDelete()" style="html=1;verticalAlign=bottom;endArrow=block;curved=0;rounded=0;" parent="1" edge="1">
          <mxGeometry width="80" relative="1" as="geometry">
            <mxPoint x="910" y="410" as="sourcePoint" />
            <mxPoint x="1125" y="410" as="targetPoint" />
          </mxGeometry>
        </mxCell>
        <mxCell id="VZwW1Q_gdff7vHrm7JKM-29" value="11. return result" style="html=1;verticalAlign=bottom;endArrow=open;dashed=1;endSize=8;curved=0;rounded=0;entryX=1;entryY=0.303;entryDx=0;entryDy=0;entryPerimeter=0;" parent="1" source="VZwW1Q_gdff7vHrm7JKM-22" edge="1">
          <mxGeometry relative="1" as="geometry">
            <mxPoint x="880" y="480.01" as="sourcePoint" />
            <mxPoint x="664.9999999999998" y="480" as="targetPoint" />
          </mxGeometry>
        </mxCell>
        <mxCell id="VZwW1Q_gdff7vHrm7JKM-30" value="10. return result" style="html=1;verticalAlign=bottom;endArrow=open;dashed=1;endSize=8;curved=0;rounded=0;entryX=1;entryY=0.303;entryDx=0;entryDy=0;entryPerimeter=0;" parent="1" edge="1">
          <mxGeometry relative="1" as="geometry">
            <mxPoint x="1125" y="460.01" as="sourcePoint" />
            <mxPoint x="909.9999999999998" y="460" as="targetPoint" />
          </mxGeometry>
        </mxCell>
        <mxCell id="VZwW1Q_gdff7vHrm7JKM-31" value="12. return result" style="html=1;verticalAlign=bottom;endArrow=open;dashed=1;endSize=8;curved=0;rounded=0;" parent="1" target="VZwW1Q_gdff7vHrm7JKM-19" edge="1">
          <mxGeometry relative="1" as="geometry">
            <mxPoint x="655" y="520" as="sourcePoint" />
            <mxPoint x="450" y="520" as="targetPoint" />
          </mxGeometry>
        </mxCell>
        <mxCell id="VZwW1Q_gdff7vHrm7JKM-32" value="13. return after delete view" style="html=1;verticalAlign=bottom;endArrow=open;dashed=1;endSize=8;curved=0;rounded=0;" parent="1" source="VZwW1Q_gdff7vHrm7JKM-19" edge="1">
          <mxGeometry relative="1" as="geometry">
            <mxPoint x="430" y="560" as="sourcePoint" />
            <mxPoint x="255" y="560" as="targetPoint" />
          </mxGeometry>
        </mxCell>
        <mxCell id="VZwW1Q_gdff7vHrm7JKM-35" value="14. display message deleted" style="html=1;verticalAlign=bottom;endArrow=open;dashed=1;endSize=8;curved=0;rounded=0;" parent="1" edge="1">
          <mxGeometry relative="1" as="geometry">
            <mxPoint x="245" y="640" as="sourcePoint" />
            <mxPoint x="90" y="640" as="targetPoint" />
          </mxGeometry>
        </mxCell>
        <mxCell id="VZwW1Q_gdff7vHrm7JKM-37" value="alt delete employee by id" style="shape=umlFrame;whiteSpace=wrap;html=1;pointerEvents=0;width=120;height=40;" parent="1" vertex="1">
          <mxGeometry x="60" y="300" width="1090" height="280" as="geometry" />
        </mxCell>
        <mxCell id="VZwW1Q_gdff7vHrm7JKM-38" value="id not found" style="text;html=1;align=center;verticalAlign=middle;whiteSpace=wrap;rounded=0;" parent="1" vertex="1">
          <mxGeometry x="130" y="370" width="80" height="30" as="geometry" />
        </mxCell>
        <mxCell id="VZwW1Q_gdff7vHrm7JKM-39" value="list found" style="text;html=1;align=center;verticalAlign=middle;whiteSpace=wrap;rounded=0;" parent="1" vertex="1">
          <mxGeometry x="120" y="500" width="80" height="30" as="geometry" />
        </mxCell>
        <mxCell id="VZwW1Q_gdff7vHrm7JKM-41" value="2. click delete button" style="html=1;verticalAlign=bottom;endArrow=block;curved=0;rounded=0;" parent="1" edge="1">
          <mxGeometry width="80" relative="1" as="geometry">
            <mxPoint x="90" y="190" as="sourcePoint" />
            <mxPoint x="245" y="190" as="targetPoint" />
          </mxGeometry>
        </mxCell>
        <mxCell id="VZwW1Q_gdff7vHrm7JKM-42" value="3. confirm delete" style="html=1;verticalAlign=bottom;endArrow=block;curved=0;rounded=0;" parent="1" edge="1">
          <mxGeometry width="80" relative="1" as="geometry">
            <mxPoint x="90" y="220" as="sourcePoint" />
            <mxPoint x="245" y="220" as="targetPoint" />
          </mxGeometry>
        </mxCell>
        <mxCell id="VZwW1Q_gdff7vHrm7JKM-43" value="6. return id not found message" style="html=1;verticalAlign=bottom;endArrow=open;dashed=1;endSize=8;curved=0;rounded=0;" parent="1" edge="1">
          <mxGeometry relative="1" as="geometry">
            <mxPoint x="655" y="330" as="sourcePoint" />
            <mxPoint x="445" y="330" as="targetPoint" />
          </mxGeometry>
        </mxCell>
        <mxCell id="VZwW1Q_gdff7vHrm7JKM-44" value="7. return id not found message" style="html=1;verticalAlign=bottom;endArrow=open;dashed=1;endSize=8;curved=0;rounded=0;" parent="1" edge="1">
          <mxGeometry relative="1" as="geometry">
            <mxPoint x="435" y="360" as="sourcePoint" />
            <mxPoint x="255" y="360" as="targetPoint" />
          </mxGeometry>
        </mxCell>
        <mxCell id="VZwW1Q_gdff7vHrm7JKM-45" value="" style="endArrow=none;dashed=1;html=1;dashPattern=1 3;strokeWidth=2;rounded=0;exitX=0.001;exitY=0.285;exitDx=0;exitDy=0;exitPerimeter=0;" parent="1" edge="1">
          <mxGeometry width="50" height="50" relative="1" as="geometry">
            <mxPoint x="90.55999999999989" y="444.5700000000003" as="sourcePoint" />
            <mxPoint x="655" y="444.5700000000001" as="targetPoint" />
          </mxGeometry>
        </mxCell>
      </root>
    </mxGraphModel>
  </diagram>
</mxfile>
